    <svg width="204" height="181" viewBox="0 0 204 181" fill="none" xmlns="http://www.w3.org/2000/svg">
        <path style="mix-blend-mode:screen"
              d="M203.063 163.145V163.342C203.063 163.519 203.063 163.702 203.063 163.879C203.063 164.056 203.063 164.208 203.063 164.385C203.063 164.436 203.063 164.481 203.063 164.532C203.063 164.689 203.063 164.841 203.023 164.998C202.982 165.155 202.992 165.296 202.977 165.448C202.962 165.6 202.942 165.707 202.927 165.833C202.886 166.096 202.841 166.339 202.795 166.608C202.749 166.876 202.719 166.962 202.684 167.139C202.648 167.317 202.613 167.443 202.572 167.595L202.466 167.995C202.208 168.924 201.869 169.829 201.453 170.699C201.337 170.937 201.225 171.175 201.099 171.403L200.881 171.797L200.623 172.243C200.621 172.255 200.621 172.267 200.623 172.278L200.324 172.749C200.122 173.058 199.909 173.367 199.681 173.661C199.57 173.813 199.453 173.954 199.337 174.106L198.977 174.537L198.674 174.881L198.598 174.957C198.486 175.083 198.365 175.215 198.243 175.337L198.107 175.478C197.914 175.666 197.712 175.853 197.509 176.04L197.388 176.152C197.175 176.344 196.952 176.526 196.724 176.709L196.674 176.754C196.41 176.962 196.137 177.164 195.864 177.352C195.442 177.658 195.005 177.94 194.552 178.197L194.471 178.243L193.909 178.552H193.884C193.656 178.673 193.433 178.785 193.205 178.891C192.755 179.103 192.293 179.293 191.823 179.458H191.793C191.494 179.564 191.19 179.666 190.892 179.757L190.355 179.904L190.107 179.969L189.854 180.03L189.185 180.167L188.876 180.228H188.806L188.38 180.288C188.244 180.288 188.102 180.329 187.96 180.339H187.839H187.742C187.596 180.339 187.449 180.369 187.307 180.379H186.983H186.826H16.9581H16.5784C16.4315 180.379 16.2948 180.379 16.1581 180.379L15.7936 180.354L15.0088 180.359C14.9685 180.364 14.9276 180.364 14.8873 180.359C14.705 180.359 14.5227 180.309 14.3405 180.278L14.0873 180.238H14.0367L13.6519 180.167C13.5101 180.142 13.3734 180.111 13.2367 180.076C12.9582 180.015 12.6797 179.939 12.4114 179.863L12.0064 179.747L11.6064 179.62C11.4443 179.564 11.2773 179.504 11.1001 179.438C10.9228 179.372 10.8418 179.347 10.7102 179.291L10.4317 179.174C10.2697 179.109 10.1077 179.038 9.92541 178.957C9.74314 178.876 9.58618 178.8 9.4191 178.714C9.29795 178.659 9.17966 178.598 9.06468 178.531C8.87228 178.435 8.68495 178.329 8.49761 178.223L8.19382 178.04L7.84447 177.823L7.17613 177.321C6.94829 177.164 6.73564 176.997 6.51793 176.815L6.19895 176.552L5.87997 176.288C5.77871 176.197 5.67239 176.111 5.57619 176.01L5.2724 175.737C5.1762 175.64 5.07494 175.549 4.97874 175.448C4.04067 174.506 3.21183 173.462 2.50793 172.334C2.39654 172.147 2.28516 171.959 2.17883 171.767C2.07251 171.575 1.94593 171.347 1.83454 171.134C1.72315 170.922 1.58645 170.628 1.46999 170.38C1.35354 170.132 1.23709 169.838 1.1257 169.565C1.04975 169.367 0.983934 169.17 0.913051 168.972C0.882672 168.886 0.857355 168.805 0.826976 168.724C0.771282 168.557 0.720652 168.39 0.670021 168.218C0.61939 168.046 0.6042 167.995 0.568758 167.884C0.533316 167.742 0.49281 167.595 0.457369 167.448C0.421927 167.301 0.391548 167.16 0.356106 167.013C0.320664 166.866 0.290285 166.674 0.254843 166.507C0.219401 166.339 0.199149 166.193 0.173833 166.031C0.173833 165.853 0.128265 165.676 0.102949 165.489C0.102949 165.464 0.102949 165.438 0.102949 165.413L0.072572 165.099C0.0421932 164.836 0.0219402 164.567 0.00675083 164.304C-0.00843854 164.041 0.00675083 163.656 0.00675083 163.332C0.00675083 163.099 0.00675083 162.861 0.00675083 162.628V162.593C0.00675083 162.405 0.00675068 162.223 0.0421925 162.041C0.0421925 161.967 0.0421925 161.896 0.0421925 161.828C0.0393974 161.817 0.0393974 161.804 0.0421925 161.793C0.0421925 161.585 0.0877604 161.378 0.113076 161.175C0.138392 160.973 0.178896 160.694 0.219401 160.451C0.219401 160.38 0.219401 160.309 0.254843 160.238L0.33079 159.854C0.33079 159.773 0.366233 159.686 0.386485 159.605L0.462431 159.281C0.462431 159.231 0.487748 159.185 0.497875 159.13C0.508001 159.074 0.553568 158.917 0.583947 158.811C0.614325 158.704 0.659893 158.547 0.700398 158.416L0.821914 158.026C0.882672 157.833 0.948492 157.641 1.01938 157.454L1.19658 156.993C1.3635 156.529 1.55447 156.075 1.76872 155.631L2.00669 155.17V155.145C2.55324 154.132 3.20491 153.18 3.95093 152.304C4.18889 152.016 4.45724 151.737 4.70533 151.469C4.77621 151.383 4.85722 151.302 4.93823 151.221C5.01924 151.14 5.04456 151.115 5.10025 151.069C5.3686 150.801 5.64707 150.563 5.93061 150.31L6.34072 149.975C6.45717 149.874 6.57869 149.788 6.69514 149.697L7.26727 149.277L7.73814 148.963C8.05206 148.755 8.37609 148.558 8.7052 148.381C9.37271 147.998 10.0645 147.66 10.776 147.368C10.9482 147.307 11.1203 147.236 11.2823 147.181C12.1577 146.864 13.059 146.623 13.9759 146.462C14.0877 146.436 14.201 146.417 14.3151 146.406C14.3385 146.401 14.3627 146.401 14.386 146.406C14.4214 146.403 14.457 146.403 14.4923 146.406V146.406C14.5759 146.387 14.6604 146.374 14.7455 146.365C14.8518 146.365 14.9531 146.335 15.0594 146.33L15.3885 146.295C15.6974 146.259 16.0012 146.239 16.31 146.229H16.5784C16.7252 146.229 16.8771 146.229 17.029 146.229H185.925C188.865 146.227 191.757 146.982 194.321 148.421C196.886 149.861 199.037 151.935 200.567 154.446V154.477L200.75 154.796L201.033 155.302C201.124 155.474 201.215 155.646 201.301 155.808L201.544 156.314C201.62 156.487 201.701 156.664 201.772 156.821L201.914 157.175C201.96 157.287 202 157.408 202.046 157.525L202.182 157.935C202.233 158.071 202.274 158.208 202.319 158.345C202.317 158.365 202.317 158.385 202.319 158.406C202.37 158.583 202.415 158.76 202.461 158.912C202.488 158.995 202.51 159.079 202.527 159.165C202.527 159.251 202.567 159.337 202.592 159.418L202.684 159.849C202.684 159.94 202.724 160.031 202.734 160.117C202.744 160.203 202.785 160.4 202.805 160.542C202.825 160.684 202.836 160.724 202.851 160.811C202.866 160.897 202.851 160.998 202.886 161.084C202.922 161.17 202.927 161.383 202.937 161.529C202.947 161.676 202.967 161.823 202.977 161.965C202.987 162.107 202.977 162.193 202.977 162.304C202.977 162.416 202.977 162.446 202.977 162.522C202.977 162.598 202.977 162.664 202.977 162.74C202.977 162.816 203.063 163.033 203.063 163.145Z"
              fill="#0B23AD"/>
        <path style="mix-blend-mode:screen"
              d="M203.063 163.145V163.342C203.063 163.519 203.063 163.702 203.063 163.879C203.063 164.056 203.063 164.208 203.063 164.385C203.063 164.436 203.063 164.481 203.063 164.532C203.063 164.689 203.063 164.841 203.023 164.998C202.982 165.155 202.992 165.296 202.977 165.448C202.962 165.6 202.942 165.707 202.927 165.833C202.886 166.096 202.841 166.339 202.795 166.608C202.749 166.876 202.719 166.962 202.684 167.139C202.648 167.317 202.613 167.443 202.572 167.595L202.466 167.995C202.202 168.922 201.863 169.826 201.453 170.699C201.337 170.937 201.225 171.175 201.099 171.403L200.881 171.797L200.623 172.243C200.621 172.255 200.621 172.267 200.623 172.278L200.324 172.749C200.122 173.058 199.909 173.367 199.681 173.661C199.57 173.813 199.453 173.954 199.337 174.106L198.977 174.537L198.674 174.881L198.598 174.957C198.486 175.083 198.365 175.215 198.243 175.337L198.107 175.478C197.914 175.666 197.712 175.853 197.509 176.04L197.388 176.152C197.175 176.344 196.952 176.526 196.724 176.709L196.674 176.754C196.41 176.962 196.137 177.164 195.864 177.352C195.442 177.658 195.005 177.94 194.552 178.197L194.471 178.243L193.909 178.552H193.884C193.656 178.673 193.433 178.785 193.205 178.891C192.755 179.103 192.293 179.293 191.823 179.458H191.793C191.494 179.564 191.19 179.666 190.892 179.757L190.355 179.904L190.107 179.969L189.854 180.03L189.185 180.167L188.876 180.228H188.806L188.38 180.288C188.244 180.288 188.102 180.329 187.96 180.339H187.839H187.742C187.596 180.339 187.449 180.369 187.307 180.379H186.983H186.826H185.985C184.021 180.372 182.073 180.03 180.224 179.367L179.854 179.23C179.57 179.124 179.292 179.007 179.024 178.886C178.689 178.734 178.36 178.572 178.011 178.405C177.849 178.319 177.682 178.233 177.505 178.137C177.186 177.959 176.872 177.767 176.558 177.569C176.089 177.266 175.636 176.938 175.201 176.587L174.791 176.243L174.558 176.035C174.431 175.924 174.305 175.813 174.178 175.691C174.052 175.57 173.9 175.423 173.763 175.281L173.647 175.17L173.221 174.714C173.074 174.547 172.923 174.375 172.781 174.208C172.548 173.919 172.32 173.63 172.102 173.332C172.066 173.286 172.032 173.239 172.001 173.19C171.681 172.745 171.383 172.283 171.11 171.808L156.265 146.102L138.863 116.108C142.67 113.404 142.65 106.62 142.448 103.739V103.612C142.311 102.164 141.784 98.8885 139.85 96.6962C141.311 96.429 142.629 95.6493 143.567 94.4972C144.504 93.3451 145 91.8963 144.964 90.4115C144.929 88.9266 144.365 87.503 143.374 86.397C142.382 85.2909 141.029 84.5748 139.557 84.3776C139.278 84.3412 138.997 84.3226 138.716 84.3219C137.52 84.3229 136.349 84.6677 135.344 85.3153C134.338 85.9629 133.54 86.886 133.044 87.9745C132.549 89.063 132.376 90.271 132.548 91.4547C132.72 92.6384 133.228 93.7478 134.012 94.6507H133.967C132.316 94.9899 130.311 96.1088 129.213 99.3594L125.668 93.233C125.937 93.2302 126.204 93.2065 126.468 93.1621H126.504C127.496 93.0051 128.423 92.5668 129.174 91.8991C129.925 91.2315 130.469 90.3625 130.742 89.3951C131.8 85.6687 128.59 82.1701 126.585 80.4182L126.539 80.3777L126.499 80.3473C127.46 79.6695 128.195 78.718 128.609 77.6165C129.022 76.5151 129.094 75.3148 128.815 74.1719C128.536 73.029 127.92 71.9965 127.046 71.2087C126.173 70.421 125.082 69.9145 123.917 69.7553C122.379 69.5549 120.824 69.9704 119.591 70.9112C118.358 71.8519 117.547 73.2418 117.335 74.7779C117.143 76.1999 117.483 77.6426 118.291 78.8284C118.059 78.9586 117.837 79.1076 117.628 79.274L114.955 74.6412C115.347 73.2012 115.152 71.6646 114.413 70.3679C113.558 68.9378 112.245 67.8387 110.687 67.249V67.249L107.031 60.9151L101.512 51.447L101.482 51.3964L86.6469 25.701C85.1092 23.0348 84.3188 20.0033 84.3589 16.9257C84.399 13.8481 85.2681 10.8383 86.8748 8.213C86.9507 8.08136 87.0317 7.95984 87.1077 7.83833C87.1836 7.71682 87.1684 7.74719 87.1937 7.70162C87.2191 7.65606 87.3051 7.53454 87.3659 7.45353L87.5431 7.20544C87.6494 7.05355 87.7608 6.90165 87.8722 6.75482C87.9836 6.60799 88.1203 6.43584 88.2519 6.27889C88.3836 6.12193 88.419 6.08143 88.5 5.99029C88.581 5.89915 88.6266 5.83333 88.6924 5.75232C88.7582 5.67131 88.8646 5.56499 88.9507 5.47891L89.376 5.03336L89.8266 4.60299L89.8873 4.54224L89.9481 4.48654C90.1101 4.33465 90.2772 4.18781 90.4544 4.04605C90.6316 3.90428 90.8038 3.75745 90.9911 3.61568L91.0873 3.53467L91.1177 3.50936L91.462 3.2562L91.8417 2.99292L92.0493 2.85621C92.2974 2.69419 92.5556 2.53217 92.8088 2.38534L92.8746 2.34484L92.9708 2.29421C93.1328 2.19801 93.2948 2.10687 93.4771 2.02586C93.6594 1.94485 93.7353 1.88409 93.8669 1.82334C94.2112 1.65119 94.5555 1.49424 94.8796 1.3474L95.0365 1.28665L95.4618 1.12463C95.6239 1.06049 95.7926 0.999736 95.9681 0.942353C96.3276 0.820838 96.7023 0.709449 97.0719 0.61325C97.32 0.542366 97.5782 0.486671 97.8263 0.430977L98.2111 0.349969L98.5959 0.284146L98.7681 0.253768C99.0566 0.2082 99.3503 0.167697 99.644 0.137319H99.9123C100.049 0.137319 100.191 0.137316 100.333 0.106937C101.064 0.0588367 101.798 0.0588367 102.53 0.106937L103.082 0.152507C103.264 0.152507 103.446 0.187948 103.629 0.218327C103.811 0.248705 103.943 0.258833 104.094 0.279085L104.267 0.309463L104.773 0.405664L105.244 0.506924L105.78 0.638567L106.256 0.770209L106.499 0.846153C106.677 0.896784 106.844 0.957544 107.006 1.0183L107.203 1.08412C107.255 1.0982 107.306 1.11683 107.355 1.13981C107.532 1.20057 107.71 1.27146 107.861 1.34234L108.403 1.57524L108.909 1.81321L109.385 2.05118L109.461 2.09675L109.932 2.36003C109.981 2.39334 110.032 2.42377 110.084 2.45117L110.626 2.64356C110.758 2.71951 110.889 2.80558 111.016 2.89166C111.586 3.27084 112.132 3.68513 112.651 4.13212L113.066 4.49667L113.112 4.54224C113.259 4.67894 113.406 4.81564 113.542 4.95741C113.816 5.22576 114.079 5.50929 114.332 5.80295C114.373 5.83839 114.408 5.88396 114.443 5.91941C114.479 5.95485 114.499 5.99029 114.53 6.02067C114.53 6.02067 114.555 6.02067 114.56 6.05611C114.808 6.34471 115.066 6.64849 115.269 6.95734C115.314 7.00792 115.354 7.06211 115.39 7.11936L115.724 7.62568C115.851 7.81301 115.973 8.00541 116.089 8.19781C116.205 8.39021 116.246 8.43578 116.317 8.56236L200.567 154.421V154.451L200.749 154.77L201.033 155.277C201.124 155.449 201.215 155.621 201.301 155.783L201.544 156.289C201.62 156.461 201.701 156.638 201.772 156.795L201.914 157.15C201.96 157.261 202 157.383 202.046 157.499L202.182 157.909C202.233 158.046 202.274 158.183 202.319 158.319C202.317 158.34 202.317 158.36 202.319 158.38V158.38C202.37 158.557 202.415 158.735 202.461 158.887C202.488 158.969 202.51 159.054 202.527 159.14C202.527 159.226 202.567 159.312 202.592 159.393L202.684 159.823C202.684 159.914 202.724 160.005 202.734 160.092C202.744 160.178 202.785 160.375 202.805 160.517C202.825 160.659 202.836 160.699 202.851 160.785C202.866 160.871 202.851 160.973 202.886 161.059C202.922 161.145 202.927 161.357 202.937 161.504C202.947 161.651 202.967 161.798 202.977 161.94C202.987 162.081 202.977 162.167 202.977 162.279C202.977 162.39 202.977 162.421 202.977 162.497C202.977 162.572 202.977 162.638 202.977 162.714C202.977 162.79 203.063 163.033 203.063 163.145Z"
              fill="#4F66FF"/>
        <path style="mix-blend-mode:screen"
              d="M118.61 16.0963C118.61 15.9394 118.61 15.7875 118.569 15.6305C118.529 15.4736 118.544 15.3723 118.529 15.2407C118.514 15.109 118.494 14.9521 118.473 14.8153C118.453 14.6786 118.428 14.5268 118.407 14.385C118.387 14.2432 118.362 14.1217 118.337 13.9951C118.291 13.7268 118.22 13.4888 118.159 13.2053C117.854 11.8707 117.386 10.5785 116.767 9.3573C116.57 8.96238 116.352 8.57758 116.124 8.19785C116.008 8.00545 115.886 7.81305 115.759 7.62571L115.425 7.1194C115.389 7.06215 115.349 7.00796 115.304 6.95738C115.081 6.64853 114.843 6.34474 114.595 6.05614C114.595 6.05614 114.595 6.05614 114.565 6.0207C114.499 5.94982 114.433 5.86881 114.367 5.80299C114.114 5.50933 113.861 5.22579 113.577 4.95745C113.441 4.81568 113.294 4.67898 113.147 4.54227L113.101 4.49671L112.686 4.13216C112.158 3.67719 111.602 3.25611 111.02 2.87144C110.894 2.78537 110.762 2.69929 110.63 2.62335C110.499 2.5474 110.266 2.39551 110.084 2.28918L109.613 2.0259L109.537 1.98033L109.061 1.74236L108.555 1.5044L108.013 1.27149C107.841 1.20061 107.664 1.12973 107.507 1.06897C107.458 1.04599 107.407 1.02735 107.355 1.01327V1.01327L107.157 0.947454C106.985 0.886697 106.818 0.825937 106.651 0.775306L106.408 0.699362L105.932 0.56772L105.395 0.436078L104.924 0.334817L104.418 0.238616L104.246 0.208239C104.094 0.208239 103.937 0.162669 103.78 0.14748C103.623 0.132291 103.416 0.0968501 103.233 0.0816607L102.681 0.0360906C101.95 -0.0120099 101.216 -0.0120099 100.484 0.0360906C100.342 0.0360906 100.2 0.0360932 100.064 0.066472H99.7954C99.5017 0.0968507 99.2081 0.137354 98.9195 0.182922L98.7473 0.213299L98.3625 0.279122L97.9777 0.36013C97.7246 0.415825 97.4714 0.476582 97.2233 0.542403C96.8537 0.638602 96.4791 0.749992 96.1196 0.871507C95.9474 0.925513 95.7787 0.986271 95.6133 1.05378L95.188 1.2158L95.031 1.27656C94.6867 1.42339 94.3424 1.58034 94.0184 1.75249C93.8867 1.81325 93.7602 1.88413 93.6285 1.95501C93.4969 2.0259 93.3652 2.09678 93.2387 2.16767L93.1374 2.22336L93.0412 2.27399L92.9754 2.3145C92.7222 2.46133 92.4691 2.62335 92.2159 2.78537L92.0083 2.92207L91.6286 3.18535L91.2843 3.43851L91.2539 3.46383L91.1577 3.54484C90.9704 3.6866 90.7982 3.82837 90.621 3.9752C90.4438 4.12203 90.2869 4.2638 90.1147 4.41569L90.054 4.47139L89.9932 4.53215L89.5426 4.96251L89.1173 5.40807C89.0312 5.49414 88.9401 5.59034 88.8591 5.68147C88.7072 5.85362 88.5654 6.02577 88.4186 6.18779C88.2717 6.34981 88.1603 6.5017 88.0388 6.66372C87.9173 6.82574 87.8161 6.96245 87.7097 7.11434L87.5325 7.36243C87.4718 7.44344 87.4161 7.52951 87.3604 7.61052C87.3047 7.69153 87.3047 7.70166 87.2743 7.74723C87.2439 7.7928 87.1173 7.99026 87.0414 8.1219C86.9623 8.23414 86.8896 8.35078 86.8237 8.47126L6.97821 146.568L2.24925 154.76L2.01129 155.19C2.01129 155.19 2.01129 155.19 2.01129 155.216C1.93509 155.347 1.8658 155.482 1.8037 155.621C1.5801 156.054 1.379 156.498 1.20119 156.952L1.02398 157.413C0.953094 157.6 0.887273 157.793 0.826516 157.985L0.705002 158.375C0.664497 158.507 0.62399 158.638 0.588548 158.77C0.553107 158.902 0.527792 158.983 0.502476 159.089C0.477161 159.195 0.502476 159.19 0.467034 159.241L0.391087 159.565C0.391087 159.646 0.355645 159.732 0.335392 159.813L0.259446 160.198C0.259446 160.269 0.234131 160.34 0.224005 160.411C0.1835 160.654 0.142995 160.892 0.11768 161.135C0.092364 161.378 0.0670468 161.545 0.0467943 161.752C0.0439991 161.764 0.0439991 161.776 0.0467943 161.788C0.0467943 161.852 0.0467943 161.923 0.0467943 162C0.0467943 162.183 0.0214788 162.365 0.0113525 162.552V162.588C0.0113525 162.821 0.0113525 163.059 0.0113525 163.291C0.0113525 163.615 0.0113525 163.94 0.0113525 164.264C0.0113525 164.588 0.046795 164.795 0.0771737 165.058L0.107553 165.372C0.107553 165.398 0.107553 165.423 0.107553 165.448C0.132869 165.636 0.153121 165.813 0.178437 165.99C0.178437 166.152 0.234131 166.309 0.259446 166.466C0.284762 166.623 0.325267 166.805 0.360709 166.972C0.396151 167.139 0.426528 167.266 0.46197 167.408C0.497412 167.55 0.537918 167.701 0.57336 167.843C0.574282 167.853 0.574282 167.863 0.57336 167.874C0.598675 167.975 0.629055 168.076 0.659434 168.177C0.689813 168.279 0.760695 168.517 0.816389 168.684C0.846768 168.765 0.872085 168.846 0.902463 168.932C0.973347 169.129 1.03917 169.327 1.11511 169.524C1.2265 169.798 1.33789 170.071 1.45941 170.339C1.58092 170.608 1.69737 170.846 1.82395 171.094C1.95053 171.342 2.04673 171.519 2.16824 171.727C2.28976 171.934 2.38596 172.106 2.49735 172.294C3.19701 173.424 4.02622 174.469 4.96815 175.408C5.06435 175.509 5.16561 175.6 5.26181 175.696L5.5656 175.97C5.6618 176.071 5.76812 176.157 5.86939 176.248L6.18836 176.511L6.50734 176.775C6.72506 176.942 6.93771 177.109 7.16555 177.281L7.84907 177.742L8.19842 177.959L8.50221 178.142C8.68955 178.248 8.87688 178.354 9.06928 178.45C9.18426 178.517 9.30255 178.578 9.4237 178.633C9.59079 178.719 9.75787 178.8 9.93002 178.876C10.1022 178.952 10.2541 179.028 10.4363 179.093L10.7148 179.21C10.8464 179.266 10.973 179.311 11.1047 179.357C11.2363 179.402 11.4338 179.483 11.611 179.539L12.011 179.666L12.416 179.782C12.6844 179.858 12.9628 179.934 13.2413 179.995C13.378 180.03 13.5147 180.061 13.6565 180.086L14.0413 180.157H14.0919L14.3451 180.197C14.5273 180.228 14.7096 180.258 14.8919 180.278C14.9322 180.283 14.9731 180.283 15.0134 180.278L15.783 180.354L16.1475 180.379C16.2842 180.379 16.4209 180.379 16.5678 180.379H16.9475H17.1045C20.1105 180.378 23.0631 179.585 25.6654 178.08C28.2677 176.575 30.4281 174.412 31.9293 171.808L46.7744 146.102L65.751 113.237C64.8215 111.56 64.2573 109.705 64.0953 107.795V107.693C63.9232 105.162 63.8979 99.5569 66.7281 96.6304C65.1602 96.4194 63.7309 95.6206 62.7298 94.3955C61.7287 93.1705 61.2304 91.6108 61.336 90.0322C61.4415 88.4536 62.1429 86.9741 63.2982 85.8932C64.4535 84.8124 65.9764 84.2109 67.5585 84.2105C67.8361 84.214 68.1133 84.2325 68.3888 84.2662C69.2773 84.3849 70.1296 84.6944 70.8873 85.1733C71.6449 85.6522 72.2901 86.2892 72.7786 87.0408C72.495 84.2612 74.1912 81.7195 75.2595 80.4587L75.2899 80.4132L75.3253 80.3777C76.6667 78.7869 78.2736 77.4405 80.0745 76.3981C79.3049 75.9003 78.683 75.205 78.2738 74.3847C77.8647 73.5645 77.6833 72.6494 77.7486 71.7351C77.8139 70.8208 78.1236 69.9408 78.6452 69.187C79.1668 68.4333 79.8813 67.8334 80.7139 67.4501C81.5465 67.0668 82.4668 66.9141 83.3786 67.008C84.2905 67.1019 85.1603 67.4389 85.8974 67.9838C86.6345 68.5287 87.2117 69.2616 87.5688 70.1058C87.9259 70.95 88.0498 71.8746 87.9274 72.7831C87.9274 72.8387 87.9274 72.8944 87.9274 72.9451C88.4312 72.5607 88.9914 72.2567 89.5881 72.0438L101.512 51.3964L116.347 25.7011C117.854 23.1032 118.649 20.1531 118.65 17.1495C118.64 16.8203 118.625 16.4457 118.61 16.0963ZM72.4799 77.8664C72.2434 79.5329 71.4138 81.0581 70.1433 82.1621C68.8728 83.2661 67.2468 83.8748 65.5636 83.8764C65.2502 83.8773 64.9371 83.8553 64.6269 83.8105C62.7961 83.5639 61.1382 82.6001 60.0179 81.1313C58.8975 79.6625 58.4063 77.8088 58.6525 75.9779C58.8832 74.3077 59.7097 72.7771 60.9797 71.6681C62.2496 70.5591 63.8776 69.9463 65.5636 69.9426C65.8768 69.9425 66.1897 69.9628 66.5003 70.0034C68.3319 70.2514 69.9902 71.2159 71.1113 72.6854C72.2324 74.1549 72.7246 76.0091 72.4799 77.8411V77.8664Z"
              fill="#00F3FF"/>
        <path
            d="M138.63 104.002V103.977C138.59 103.582 138.21 100.063 136.539 98.8328C136.15 98.5333 135.673 98.3713 135.182 98.3721C135.026 98.3699 134.869 98.3852 134.716 98.4176C133.562 98.6505 132.787 99.9821 132.413 102.367C132.413 102.402 132.413 102.428 132.326 102.453C132.002 102.574 131.638 102.716 131.213 102.848C130.215 103.174 129.178 103.365 128.129 103.415C127.937 103.415 127.749 103.415 127.572 103.415C125.547 103.415 124.261 102.736 123.977 101.44C123.228 98.1552 121.696 95.0998 119.512 92.5343C119.969 91.5558 120.639 90.6911 121.471 90.0027C122.006 89.5866 122.571 89.2109 123.162 88.8787C123.299 88.8028 123.425 88.742 123.537 88.6914C124.137 89.1018 124.837 89.3432 125.562 89.3901C125.668 89.3976 125.775 89.3976 125.881 89.3901C126.156 89.3546 126.415 89.24 126.626 89.0602C126.837 88.8805 126.992 88.6433 127.071 88.3775C127.481 86.9395 125.719 84.7675 124.079 83.3143C123.785 83.0713 122.352 81.9524 121.091 81.9524C120.994 81.9448 120.895 81.9448 120.798 81.9524C120.561 81.9855 120.334 82.0691 120.132 82.1975C119.93 82.3259 119.758 82.4961 119.628 82.6966V82.6966C119.203 83.3751 119.405 84.327 120.236 85.5168C119.879 86.2106 119.457 86.8684 118.975 87.4813C118.292 88.324 117.426 89.0008 116.443 89.461C113.57 87.1519 110.231 85.4905 106.656 84.5902C106.545 84.5599 106.418 84.5345 106.292 84.5092H106.186C105.801 84.3573 105.406 84.0839 105.755 81.4714C105.786 81.2334 105.816 81.0005 105.856 80.7676C105.987 79.6835 106.378 78.6471 106.995 77.7462C107.612 76.8453 108.437 76.1067 109.401 75.5931C109.997 75.3231 110.519 74.9111 110.92 74.3931C111.164 74.0912 111.313 73.723 111.346 73.3358C111.38 72.9486 111.296 72.5603 111.107 72.221C110.145 70.4894 106.596 69.7806 102.976 69.7806C102.338 69.7806 101.689 69.8059 101.052 69.8464C100.616 69.892 96.7479 70.3072 95.4011 72.1299C95.2629 72.311 95.1504 72.5103 95.0669 72.7223C94.9006 73.1563 94.8619 73.6289 94.9555 74.0843C95.0973 74.788 95.6289 75.3602 96.5352 75.7956C96.966 76.0029 97.3762 76.2504 97.7605 76.5348C98.461 77.0283 99.0563 77.6563 99.5118 78.3821C99.9673 79.1079 100.274 79.9171 100.414 80.7625C100.449 80.9904 100.484 81.2334 100.515 81.4865C100.672 82.6106 100.576 83.5118 100.277 83.8763C100.221 83.9406 100.152 83.9914 100.074 84.0248C99.9957 84.0581 99.9111 84.0732 99.8263 84.0687C97.2947 84.332 95.2694 85.1269 93.7505 86.4282C92.6062 87.4408 91.4265 88.2964 90.424 89.0306C90.4125 89.0345 90.4001 89.0345 90.3886 89.0306V89.0306C88.7734 88.4436 87.3426 87.439 86.2419 86.1193C85.5888 85.2982 85.0269 84.4087 84.566 83.4662C84.5589 83.453 84.5552 83.4382 84.5552 83.4232C84.5552 83.4082 84.5589 83.3934 84.566 83.3802C85.2495 82.2663 85.5179 81.3549 85.3913 80.6157C85.348 80.3477 85.2441 80.0931 85.0875 79.8714C84.8904 79.5897 84.5998 79.3869 84.2673 79.2993C84.1029 79.2509 83.9323 79.227 83.761 79.2284C82.0901 79.2284 79.8168 81.1372 78.2472 82.9295C77.9434 83.3093 76.4042 85.2586 76.6321 86.813C76.6691 87.0774 76.7624 87.3308 76.9056 87.5561C77.0489 87.7815 77.2387 87.9735 77.4624 88.1192C77.7278 88.2906 78.0376 88.3804 78.3535 88.3775C79.2417 88.2889 80.0829 87.9361 80.7687 87.3648V87.3648C80.7951 87.3572 80.8232 87.3572 80.8497 87.3648V87.3648C81.7449 87.8141 82.593 88.3518 83.3812 88.9698C84.4919 89.8763 85.376 91.0291 85.9634 92.3368C85.9595 92.3622 85.947 92.3854 85.928 92.4026C83.4268 94.4532 80.7636 97.1873 79.9839 101.926C79.8978 102.433 79.837 102.939 79.7763 103.445C79.7726 103.474 79.7726 103.503 79.7763 103.531C79.6618 103.557 79.5442 103.568 79.4269 103.562C78.8812 103.542 78.337 103.493 77.7966 103.415C76.3837 103.257 74.9939 102.936 73.655 102.458C73.5309 101.838 73.3425 101.232 73.093 100.65C72.855 100.053 72.4638 99.5293 71.9588 99.1315C71.6346 98.8913 71.2433 98.7586 70.8399 98.7518C70.5434 98.7514 70.252 98.8281 69.9943 98.9746C68.2475 99.9518 67.7109 103.942 67.9691 107.486C68.0237 108.023 68.1133 108.555 68.2374 109.081C68.5058 110.205 69.007 111.612 69.9285 112.291C70.297 112.574 70.7494 112.728 71.2145 112.726C71.3657 112.728 71.5167 112.714 71.6652 112.686C72.7689 112.463 73.5031 111.212 73.8474 108.964C75.1327 108.515 76.4641 108.211 77.8168 108.058C78.2873 107.999 78.7605 107.965 79.2345 107.957C79.3134 107.951 79.3925 107.962 79.4674 107.987C79.4674 107.987 79.5333 108.063 79.6092 108.341C79.8927 113.318 81.5737 117.698 84.4647 121.024C84.4797 121.039 84.4887 121.059 84.49 121.08C83.864 122.166 83.0396 123.124 82.0597 123.905C81.918 124.012 81.7863 124.113 81.6395 124.214C80.7176 124.888 79.6016 125.243 78.4599 125.227C77.8671 125.224 77.277 125.147 76.703 124.999C76.439 124.926 76.1666 124.889 75.8929 124.888C75.7556 124.887 75.6185 124.897 75.4827 124.918C75.1499 124.959 74.8366 125.097 74.5817 125.315C74.3269 125.533 74.1419 125.821 74.0499 126.143C73.5436 127.951 75.8017 130.933 78.2928 133.11C78.7029 133.444 80.6978 135.019 82.399 135.019C82.5243 135.018 82.6494 135.01 82.7737 134.994C83.0653 134.951 83.3446 134.848 83.5933 134.69C83.842 134.532 84.0545 134.323 84.2166 134.077C84.5711 133.52 84.5761 132.791 84.2166 131.905C83.938 131.18 83.8457 130.397 83.9484 129.628C84.051 128.858 84.3452 128.127 84.804 127.5C84.9204 127.343 85.0419 127.186 85.1736 126.994C86.0298 125.916 87.0982 125.025 88.3127 124.376H88.3633C91.5529 126.381 95.1419 127.665 98.8794 128.138C100.176 128.493 101.097 130.062 100.905 131.601C100.874 131.839 100.844 132.067 100.803 132.295C100.647 133.184 100.289 134.025 99.7569 134.754C99.2251 135.484 98.5336 136.081 97.7352 136.502C97.3024 136.727 96.924 137.043 96.6264 137.429C96.5719 137.507 96.5229 137.588 96.4795 137.672C96.2562 138.069 96.1928 138.536 96.3023 138.978V138.978C96.343 139.122 96.399 139.261 96.4694 139.393C97.0567 140.442 98.7326 141.054 100.743 141.328C101.617 141.441 102.499 141.497 103.381 141.495C103.917 141.495 104.459 141.495 104.986 141.439C105.355 141.404 108.631 141.039 109.79 139.48C109.978 139.237 110.11 138.956 110.178 138.657C110.247 138.358 110.249 138.048 110.185 137.748C110.05 137.053 109.515 136.509 108.58 136.118C107.783 135.74 107.093 135.168 106.574 134.454C106.055 133.74 105.725 132.907 105.613 132.032L105.558 131.581C105.411 130.528 105.558 129.91 105.765 129.703C105.786 129.674 105.813 129.652 105.845 129.637C105.877 129.623 105.913 129.618 105.948 129.622H106.12C107.499 129.567 108.85 129.207 110.074 128.569C112.606 127.379 114.357 125.333 116.059 123.166C116.109 123.16 116.16 123.16 116.211 123.166C116.676 123.166 117.826 123.521 119.021 125.09C119.681 125.939 120.28 126.834 120.813 127.769C120.962 128.04 121.041 128.345 121.041 128.655C121.041 128.964 120.962 129.269 120.813 129.541C120.304 130.363 120.07 131.326 120.145 132.29C120.185 132.641 120.328 132.972 120.556 133.242C120.784 133.513 121.086 133.71 121.426 133.809C121.614 133.856 121.808 133.88 122.003 133.88C123.957 133.88 126.808 131.647 128.934 129.206C129.172 128.918 131.253 126.331 130.959 124.391C130.921 124.084 130.815 123.789 130.651 123.527C130.487 123.265 130.267 123.041 130.008 122.873C129.708 122.672 129.355 122.568 128.995 122.574C128.13 122.641 127.299 122.94 126.59 123.44C126.325 123.603 126.02 123.689 125.709 123.688C125.4 123.688 125.096 123.608 124.828 123.455C123.965 122.949 123.134 122.39 122.342 121.779C120.772 120.584 120.226 119.364 120.236 118.685C120.229 118.579 120.254 118.474 120.307 118.382L120.377 118.331L120.651 118.093C123.269 116.007 123.643 113.263 124.003 110.61L124.053 110.255C124.053 110.23 124.504 108.276 127.527 108.276C127.714 108.276 127.911 108.276 128.114 108.301C129.649 108.404 131.158 108.756 132.58 109.344C132.591 109.361 132.6 109.38 132.605 109.4C132.985 111.151 133.618 112.341 134.412 112.944C134.75 113.198 135.16 113.338 135.582 113.344C135.889 113.341 136.19 113.261 136.458 113.111C136.633 113.013 136.795 112.892 136.939 112.751C138.412 111.298 138.863 107.45 138.63 104.002ZM86.9862 103.612C86.8848 103.452 86.7984 103.282 86.7279 103.106C86.328 102.164 87.7051 99.5163 89.1583 97.8658L89.219 97.7949C89.8381 97.3505 90.5588 97.0685 91.3151 96.9746H91.5987H91.6392C91.6369 97.0185 91.6369 97.0624 91.6392 97.1063C91.6847 98.0936 91.1329 100.144 89.4114 101.84C88.1659 103.055 87.3355 103.496 86.9811 103.612H86.9862ZM98.044 119.004V119.035C97.9979 119.34 97.8985 119.635 97.7504 119.906C97.6358 119.931 97.5183 119.942 97.401 119.936C96.309 119.85 95.2357 119.603 94.2163 119.202C90.8949 118.052 89.1228 115.015 89.3912 112.863C89.4301 112.542 89.5762 112.243 89.8059 112.015C90.0356 111.787 90.3354 111.643 90.6569 111.607C91.9632 111.718 94.2416 113.07 96.2264 115.536C97.6592 117.323 98.0693 118.68 98.039 119.004H98.044ZM97.8466 93.1064C97.6142 93.1104 97.385 93.0512 97.1835 92.9353C96.9821 92.8194 96.8157 92.6511 96.7023 92.4482C96.5657 92.2519 96.471 92.0296 96.4238 91.7951C96.4384 91.7826 96.4558 91.7739 96.4745 91.7698L96.7023 91.7292L96.8846 91.5571C97.092 91.3737 97.3623 91.2776 97.639 91.2888C97.9489 91.2906 98.2529 91.3745 98.52 91.5318C98.6212 91.5925 99.1377 91.9166 99.0263 92.3216C98.9555 92.5308 98.8255 92.7149 98.652 92.8516C98.4785 92.9882 98.269 93.0715 98.0491 93.0912C97.9805 93.1022 97.911 93.1073 97.8415 93.1064H97.8466ZM105.74 121.895C105.46 122.138 105.097 122.264 104.727 122.245C104.303 122.235 103.885 122.129 103.507 121.936C103.107 121.743 103.082 121.561 103.072 121.49C102.986 120.862 103.932 119.678 104.591 119.075L104.631 119.04C104.738 118.904 104.888 118.807 105.056 118.766V118.766C105.056 118.766 105.436 118.852 105.897 120.027C106.246 120.797 106.17 121.495 105.735 121.895H105.74ZM106.069 106.595C105.613 108.215 104.272 109.956 103.305 110.189C103.208 110.209 103.11 110.219 103.011 110.22C101.816 110.093 100.701 109.557 99.8566 108.701C98.9048 107.81 98.5453 106.929 98.6162 106.488C98.8592 105.01 100.869 104.083 101.654 103.85H101.725C101.9 103.788 102.086 103.757 102.272 103.759C102.378 103.759 102.484 103.759 102.596 103.759C103.639 103.901 105.001 104.686 106.226 105.84C106.201 106.096 106.148 106.349 106.069 106.595V106.595ZM109.932 96.2202C109.861 96.5773 109.703 96.9112 109.472 97.1924C109.394 97.2122 109.314 97.2207 109.234 97.2177C108.323 97.1106 107.43 96.8877 106.575 96.5544C105.968 96.3519 104.783 95.1215 104.231 93.5823C104.125 93.3076 104.057 93.0197 104.029 92.7267C104.457 92.4428 104.963 92.2962 105.477 92.3064C105.616 92.3082 105.755 92.32 105.892 92.3419C107.336 92.5495 108.648 93.2967 109.563 94.433C109.77 94.6756 109.912 94.9669 109.976 95.2795C110.039 95.5921 110.023 95.9158 109.927 96.2202H109.932ZM115.912 113.379L115.73 113.617C112.747 117.739 111.299 118.68 110.606 118.736C110.464 118.184 110.52 116.493 112.601 111.41L112.641 111.308C113.304 109.673 114.16 109.283 114.266 109.222L114.606 109.116L114.702 109.07C114.986 108.925 115.295 108.837 115.613 108.812H115.689C115.689 108.812 115.714 108.812 115.76 108.883C116.575 109.901 116.367 112.736 115.907 113.379H115.912ZM117.431 103.425C117.236 103.604 117.007 103.742 116.757 103.829C116.507 103.916 116.242 103.951 115.978 103.931C115.635 103.927 115.295 103.878 114.965 103.785C114.261 103.582 113.841 103.238 113.811 103.02C113.684 102.149 114.565 101.152 114.96 100.797C115.303 100.546 115.71 100.398 116.135 100.372C116.308 100.372 116.479 100.411 116.635 100.486C116.791 100.561 116.928 100.671 117.036 100.807C117.714 101.531 117.831 102.949 117.436 103.425H117.431Z"
            fill="white"/>
        <path
            d="M69.9235 90.8736C69.8462 91.4512 69.5618 91.9811 69.1232 92.3648C68.6845 92.7485 68.1215 92.9598 67.5387 92.9596C67.4324 92.9596 67.3261 92.9596 67.2198 92.9596C66.6195 92.8722 66.0743 92.5616 65.6929 92.0899C65.3115 91.6182 65.122 91.02 65.1623 90.4147C65.2026 89.8094 65.4696 89.2416 65.9101 88.8246C66.3506 88.4075 66.9322 88.1719 67.5387 88.1648C67.6451 88.1648 67.7565 88.1648 67.8628 88.1648C68.4943 88.2529 69.0653 88.5871 69.4514 89.0945C69.8374 89.602 70.0071 90.2415 69.9235 90.8736V90.8736Z"
            fill="white"/>
        <path
            d="M141.096 90.8837C141.018 91.46 140.734 91.9886 140.296 92.372C139.859 92.7554 139.298 92.9677 138.716 92.9697C138.605 92.9697 138.498 92.9697 138.387 92.9697C137.787 92.8823 137.241 92.5718 136.86 92.1C136.479 91.6283 136.289 91.0301 136.33 90.4248C136.37 89.8196 136.637 89.2517 137.077 88.8347C137.518 88.4177 138.099 88.1821 138.706 88.1749C138.814 88.1674 138.922 88.1674 139.03 88.1749C139.663 88.2605 140.236 88.5939 140.624 89.1018C141.011 89.6097 141.181 90.2506 141.096 90.8837V90.8837Z"
            fill="white"/>
        <path
            d="M68.683 77.3297C68.5813 78.0809 68.2109 78.7699 67.6402 79.2688C67.0695 79.7678 66.3373 80.0431 65.5793 80.0436C65.4387 80.0437 65.2982 80.0336 65.159 80.0132C64.3753 79.9034 63.6621 79.5013 63.1626 78.8874C62.6632 78.2735 62.4144 77.4935 62.4664 76.7038C62.5183 75.9141 62.867 75.1733 63.4425 74.6301C64.0181 74.0869 64.7778 73.7816 65.5692 73.7754C65.7107 73.7654 65.8529 73.7654 65.9945 73.7754C66.405 73.8307 66.8006 73.9668 67.1584 74.1757C67.5161 74.3846 67.829 74.6623 68.0789 74.9927C68.3288 75.3231 68.5109 75.6997 68.6145 76.1008C68.7182 76.5019 68.7415 76.9196 68.683 77.3297Z"
            fill="white"/>
        <path
            d="M68.6476 122.093C68.6049 122.402 68.4525 122.685 68.2182 122.89C67.9838 123.096 67.6833 123.21 67.3716 123.212H67.1944C66.8748 123.163 66.5853 122.995 66.3831 122.743C66.1808 122.491 66.0806 122.172 66.1023 121.849C66.1239 121.527 66.2658 121.224 66.4999 121.001C66.734 120.778 67.0433 120.651 67.3666 120.645C67.4238 120.639 67.4815 120.639 67.5387 120.645C67.7068 120.667 67.8689 120.721 68.0157 120.806C68.1626 120.891 68.2912 121.004 68.3942 121.138C68.4973 121.273 68.5727 121.426 68.6162 121.59C68.6597 121.754 68.6703 121.925 68.6476 122.093Z"
            fill="white"/>
        <path
            d="M84.1153 72.3476C84.0725 72.6567 83.9191 72.9399 83.6836 73.1446C83.4481 73.3494 83.1464 73.462 82.8344 73.4615H82.6622C82.3426 73.4124 82.0531 73.2452 81.8508 72.9929C81.6486 72.7406 81.5484 72.4216 81.57 72.099C81.5917 71.7763 81.7336 71.4736 81.9677 71.2505C82.2018 71.0275 82.5111 70.9005 82.8344 70.8945H83.0065C83.3458 70.941 83.6529 71.12 83.8607 71.3923C84.0684 71.6646 84.16 72.008 84.1153 72.3476Z"
            fill="white"/>
        <path
            d="M125.127 75.8361C125.06 76.3246 124.818 76.772 124.445 77.0945C124.072 77.417 123.594 77.5924 123.101 77.5879H122.828C122.291 77.5524 121.79 77.3048 121.435 76.8999C121.081 76.4949 120.901 75.9656 120.937 75.4285C120.973 74.8914 121.22 74.3904 121.625 74.0357C122.03 73.6811 122.559 73.5019 123.096 73.5374C123.187 73.5299 123.279 73.5299 123.37 73.5374C123.637 73.5704 123.895 73.6564 124.129 73.7903C124.363 73.9243 124.568 74.1036 124.731 74.3176C124.895 74.5317 125.014 74.7763 125.082 75.037C125.15 75.2977 125.165 75.5694 125.127 75.8361Z"
            fill="white"/>
        <path
            d="M92.6366 137.829C92.5584 138.405 92.2744 138.934 91.8371 139.317C91.3997 139.701 90.8385 139.913 90.2569 139.915C90.1474 139.925 90.0373 139.925 89.9278 139.915C89.3214 139.836 88.768 139.529 88.3801 139.056C87.9922 138.583 87.7989 137.981 87.8395 137.37C87.8801 136.76 88.1516 136.189 88.5988 135.771C89.046 135.354 89.6353 135.123 90.2468 135.125C90.3552 135.126 90.4635 135.135 90.5708 135.151C91.0799 135.217 91.5542 135.445 91.9235 135.801C92.2928 136.158 92.5375 136.624 92.6214 137.13C92.6641 137.361 92.6693 137.597 92.6366 137.829V137.829Z"
            fill="white"/>
        <path
            d="M94.0188 78.317C93.9995 78.4727 93.9621 78.6256 93.9075 78.7727C93.7472 79.2484 93.4415 79.6618 93.0336 79.9543C92.6257 80.2469 92.1361 80.4038 91.6341 80.403C91.5278 80.403 91.4215 80.403 91.3101 80.403C90.7302 80.3237 90.1991 80.0361 89.8157 79.5939C89.4323 79.1517 89.223 78.5851 89.2267 77.9999C89.2304 77.4147 89.4469 76.8508 89.8359 76.4135C90.2249 75.9762 90.7596 75.6954 91.3405 75.6234C91.4383 75.6183 91.5363 75.6183 91.6341 75.6234C91.7403 75.6159 91.8469 75.6159 91.9531 75.6234C92.5831 75.7091 93.1537 76.0403 93.5406 76.5448C93.9276 77.0494 94.0995 77.6863 94.0188 78.317V78.317Z"
            fill="white"/>
        <path
            d="M140.215 130.442C140.131 131.067 139.824 131.641 139.351 132.057C138.877 132.473 138.268 132.703 137.638 132.705C137.519 132.704 137.401 132.696 137.283 132.68C136.631 132.588 136.037 132.253 135.622 131.742C135.207 131.231 135 130.582 135.043 129.925C135.087 129.268 135.378 128.651 135.857 128.2C136.336 127.748 136.969 127.495 137.627 127.49C137.745 127.483 137.864 127.483 137.982 127.49C138.323 127.536 138.651 127.649 138.948 127.823C139.246 127.996 139.505 128.227 139.713 128.501C139.92 128.776 140.072 129.088 140.158 129.421C140.244 129.754 140.263 130.101 140.215 130.442Z"
            fill="white"/>
    </svg>
